<svg width="36" height="33" viewBox="0 0 36 33" fill="none" xmlns="http://www.w3.org/2000/svg">
<path d="M29.4147 8.92093H23.5442V12.172H29.4147C31.1612 12.172 32.5158 13.0037 32.5158 13.7201V28.1369C32.5158 28.8527 31.1612 29.6855 29.4147 29.6855H7.22327C5.47737 29.6855 4.12281 28.8527 4.12281 28.1369V13.7217C4.12281 13.0054 5.47737 12.1731 7.22327 12.1731H13.0932V8.92201H7.22327C3.53117 8.92201 0.63916 11.0303 0.63916 13.7217V28.1375C0.63916 30.8294 3.53117 32.9366 7.22327 32.9366H29.4159C33.1068 32.9366 36 30.8283 36 28.1375V13.7217C35.9994 11.0292 33.1074 8.92093 29.4147 8.92093Z" fill="white"/>
<path d="M23.5901 15.7157C23.1442 15.7157 22.6988 15.875 22.3586 16.1925L20.1778 18.2271V11.1685V7.91743V1.68892C20.1778 0.791625 19.3981 0.063385 18.436 0.063385C17.4739 0.063385 16.6942 0.791625 16.6942 1.68892V7.91689V11.168V18.3366L14.3955 16.1919C14.0553 15.8744 13.6094 15.7151 13.1641 15.7151C12.7187 15.7151 12.2728 15.8744 11.9326 16.1919C11.2521 16.8259 11.2521 17.8554 11.9326 18.4899L17.1331 23.3432C17.4733 23.6607 17.9193 23.8184 18.364 23.8184C18.3686 23.8184 18.3733 23.8184 18.3774 23.8184C18.3814 23.8184 18.3861 23.8184 18.3901 23.8184C18.836 23.8184 19.2808 23.6607 19.621 23.3432L24.8215 18.4899C25.502 17.8554 25.502 16.8259 24.8215 16.1919C24.4813 15.875 24.0365 15.7157 23.5901 15.7157Z" fill="white"/>
</svg>
