<svg width="27" height="27" viewBox="0 0 27 27" fill="none" xmlns="http://www.w3.org/2000/svg">
<path d="M23.043 3.95411C20.4932 1.40425 17.1031 0 13.4971 0C9.89116 0 6.50103 1.40425 3.95125 3.95411C-1.31236 9.2178 -1.31236 17.7823 3.95125 23.046C6.50103 25.5958 9.89117 27 13.4972 27C17.1032 27 20.4932 25.5958 23.043 23.0459C25.5929 20.4961 26.9971 17.106 26.9971 13.5C26.9971 9.89403 25.5929 6.50389 23.043 3.95411ZM21.3074 21.3104C19.2212 23.3965 16.4475 24.5455 13.4972 24.5455C10.5469 24.5455 7.77314 23.3965 5.68686 21.3104C1.38027 17.0037 1.38027 9.99638 5.68686 5.68972C7.77306 3.60344 10.5468 2.45455 13.4971 2.45455C16.4475 2.45455 19.2212 3.60344 21.3074 5.68964C23.3936 7.77592 24.5426 10.5496 24.5426 13.5C24.5426 16.4504 23.3936 19.2241 21.3074 21.3104Z" fill="white"/>
<path d="M20.8605 12.2727H6.13328C5.4555 12.2727 4.90601 12.8222 4.90601 13.5C4.90601 14.1778 5.4555 14.7273 6.13328 14.7273H20.8605C21.5383 14.7273 22.0877 14.1778 22.0877 13.5C22.0877 12.8222 21.5383 12.2727 20.8605 12.2727Z" fill="white"/>
</svg>
