<svg width="27" height="27" viewBox="0 0 27 27" fill="none" xmlns="http://www.w3.org/2000/svg">
<path d="M23.0459 3.95411C20.4961 1.40425 17.106 0 13.5 0C9.89406 0 6.50393 1.40425 3.95415 3.95411C-1.30946 9.2178 -1.30946 17.7823 3.95415 23.046C6.50393 25.5958 9.89406 27 13.5 27C17.106 27 20.4961 25.5958 23.0459 23.0459C28.3095 17.7823 28.3095 9.21772 23.0459 3.95411ZM21.3104 21.3104C19.2241 23.3965 16.4504 24.5455 13.5 24.5455C10.5497 24.5455 7.77596 23.3965 5.68967 21.3104C1.38309 17.0037 1.38309 9.99638 5.68967 5.68972C7.77596 3.60344 10.5497 2.45455 13.5 2.45455C16.4503 2.45455 19.224 3.60344 21.3103 5.68964C25.6169 9.9963 25.6169 17.0037 21.3104 21.3104Z" fill="white"/>
<path d="M20.8636 12.2727H14.7273V6.13636C14.7273 5.45858 14.1778 4.90909 13.5 4.90909C12.8222 4.90909 12.2727 5.45858 12.2727 6.13636V12.2727H6.13636C5.45858 12.2727 4.90909 12.8222 4.90909 13.5C4.90909 14.1778 5.45858 14.7273 6.13636 14.7273H12.2727V20.8636C12.2727 21.5414 12.8222 22.0909 13.5 22.0909C14.1778 22.0909 14.7273 21.5414 14.7273 20.8636V14.7273H20.8636C21.5413 14.7273 22.0908 14.1778 22.0908 13.5C22.0908 12.8222 21.5414 12.2727 20.8636 12.2727Z" fill="white"/>
</svg>
