<svg width="50" height="50" viewBox="0 0 50 50" fill="none" xmlns="http://www.w3.org/2000/svg">
<path d="M25 0C11.215 0 0 11.2148 0 25C0 38.7849 11.215 50 25 50C38.785 50 50 38.7849 50 25C50 11.2148 38.785 0 25 0ZM25 45.4545C13.7214 45.4545 4.54545 36.2786 4.54545 25C4.54545 13.7214 13.7214 4.54545 25 4.54545C36.2786 4.54545 45.4545 13.7214 45.4545 25C45.4545 36.2786 36.2786 45.4545 25 45.4545Z" fill="white"/>
<path d="M32.0708 19.2608L27.2724 24.0586V11.3636C27.2724 10.1083 26.2548 9.09091 24.9997 9.09091C23.7445 9.09091 22.727 10.1083 22.727 11.3636V24.0586L17.9292 19.2608C17.0418 18.3733 15.6027 18.3733 14.7152 19.2608C13.8276 20.1485 13.8276 21.5873 14.7152 22.4749L23.3926 31.1523C23.8364 31.5962 24.418 31.8182 24.9995 31.8182C25.5811 31.8182 26.1629 31.5962 26.6067 31.1526L35.2847 22.4752C36.1721 21.5877 36.1723 20.1486 35.2848 19.2608C34.3971 18.3733 32.9582 18.3733 32.0708 19.2608Z" fill="white"/>
<path d="M29.5455 36.3636H20.4546C19.1994 36.3636 18.1818 37.3811 18.1818 38.6364C18.1818 39.8914 19.1994 40.9091 20.4546 40.9091H29.5455C30.8006 40.9091 31.8182 39.8914 31.8182 38.6364C31.8182 37.3811 30.8006 36.3636 29.5455 36.3636Z" fill="white"/>
</svg>
